# xmcd
#
# Track frame offsets: 
#        150
#        20346
#        43440
#        64890
#        90785
#        116015
#        131838
#        152655
#        177963
#        201662
#        229318
#        250937
#
# Disc length: 3667 seconds
#
# Revision: 3
# Processed by: cddbd v1.5.2PL0 Copyright (c) Steve Scherf et al.
# Submitted via: ExactAudioCopyFreeDBPlugin 1.0
#
DISCID=aa0e510c
DTITLE=Various Artist - Night Jazz Fantasy Vol. 1
DYEAR=1900
DGENRE=Jazz
TTITLE0=Patti Cake - thom Rotella Band
TTITLE1=Sola - The Fantasy Band
TTITLE2=Follow Me - Thursday Diva
TTITLE3=The Grey ghost - Thursday Diva
TTITLE4=Chitlins Parmigiana - Vivino Brothers
TTITLE5=Someday - Film &The BB's
TTITLE6=Friends for life - Mann Brotherss Band
TTITLE7=Shape of my heart - Chuck Loeb
TTITLE8=Rain - Charles and Friedman
TTITLE9=En El Rio - Chuck Loeb
TTITLE10=Save the best for last - Warren Bernhardt
TTITLE11=My foolish Heart - Michael Franks With Bob Mintzer Big Band
EXTD=
EXTT0=
EXTT1=
EXTT2=
EXTT3=
EXTT4=
EXTT5=
EXTT6=
EXTT7=
EXTT8=
EXTT9=
EXTT10=
EXTT11=
PLAYORDER=
